{
  "accessors": [
    {
      "bufferView": 2,
      "componentType": 5126,
      "count": 656,
      "max": [
        0.006701319012790918,
        1.0,
        0.5605754256248474
      ],
      "min": [
        -0.006701319012790918,
        -1.0,
        -0.5605754256248474
      ],
      "type": "VEC3"
    },
    {
      "bufferView": 2,
      "byteOffset": 7872,
      "componentType": 5126,
      "count": 656,
      "max": [
        0.0,
        1.0,
        1.0
      ],
      "min": [
        0.0,
        -1.0,
        -1.0
      ],
      "type": "VEC3"
    },
    {
      "bufferView": 1,
      "componentType": 5126,
      "count": 656,
      "max": [
        0.875,
        1.0
      ],
      "min": [
        0.125,
        0.25
      ],
      "type": "VEC2"
    },
    {
      "bufferView": 0,
      "componentType": 5125,
      "count": 984,
      "type": "SCALAR"
    },
    {
      "bufferView": 2,
      "byteOffset": 15744,
      "componentType": 5126,
      "count": 164,
      "max": [
        -0.006701319012790918,
        1.0,
        0.5605754256248474
      ],
      "min": [
        -0.006701319012790918,
        -1.0,
        -0.5605754256248474
      ],
      "type": "VEC3"
    },
    {
      "bufferView": 2,
      "byteOffset": 17712,
      "componentType": 5126,
      "count": 164,
      "max": [
        1.0,
        3.4609655419348684e-11,
        0.0
      ],
      "min": [
        1.0,
        3.4609655419348684e-11,
        0.0
      ],
      "type": "VEC3"
    },
    {
      "bufferView": 1,
      "byteOffset": 5248,
      "componentType": 5126,
      "count": 164,
      "max": [
        0.794919490814209,
        0.45464929938316345
      ],
      "min": [
        0.20774094760417938,
        0.091576486825943
      ],
      "type": "VEC2"
    },
    {
      "bufferView": 0,
      "byteOffset": 3936,
      "componentType": 5125,
      "count": 486,
      "type": "SCALAR"
    },
    {
      "bufferView": 2,
      "byteOffset": 19680,
      "componentType": 5126,
      "count": 164,
      "max": [
        0.006701319012790918,
        1.0,
        0.5605754256248474
      ],
      "min": [
        0.006701319012790918,
        -1.0,
        -0.5605754256248474
      ],
      "type": "VEC3"
    },
    {
      "bufferView": 2,
      "byteOffset": 21648,
      "componentType": 5126,
      "count": 164,
      "max": [
        -1.0,
        -3.4609655419348684e-11,
        0.0
      ],
      "min": [
        -1.0,
        -3.4609655419348684e-11,
        0.0
      ],
      "type": "VEC3"
    },
    {
      "bufferView": 1,
      "byteOffset": 6560,
      "componentType": 5126,
      "count": 164,
      "max": [
        0.7891501188278198,
        0.9165843725204468
      ],
      "min": [
        0.20912903547286987,
        0.5448939204216003
      ],
      "type": "VEC2"
    },
    {
      "bufferView": 0,
      "byteOffset": 5880,
      "componentType": 5125,
      "count": 486,
      "type": "SCALAR"
    },
    {
      "bufferView": 2,
      "byteOffset": 23616,
      "componentType": 5126,
      "count": 656,
      "max": [
        0.006701319012790918,
        1.0,
        0.5605754256248474
      ],
      "min": [
        -0.006701319012790918,
        -1.0,
        -0.5605754256248474
      ],
      "type": "VEC3"
    },
    {
      "bufferView": 2,
      "byteOffset": 31488,
      "componentType": 5126,
      "count": 656,
      "max": [
        0.0,
        1.0,
        1.0
      ],
      "min": [
        0.0,
        -1.0,
        -1.0
      ],
      "type": "VEC3"
    },
    {
      "bufferView": 1,
      "byteOffset": 7872,
      "componentType": 5126,
      "count": 656,
      "max": [
        0.875,
        1.0
      ],
      "min": [
        0.125,
        0.25
      ],
      "type": "VEC2"
    },
    {
      "bufferView": 0,
      "byteOffset": 7824,
      "componentType": 5125,
      "count": 984,
      "type": "SCALAR"
    },
    {
      "bufferView": 2,
      "byteOffset": 39360,
      "componentType": 5126,
      "count": 164,
      "max": [
        -0.006701319012790918,
        1.0,
        0.5605754256248474
      ],
      "min": [
        -0.006701319012790918,
        -1.0,
        -0.5605754256248474
      ],
      "type": "VEC3"
    },
    {
      "bufferView": 2,
      "byteOffset": 41328,
      "componentType": 5126,
      "count": 164,
      "max": [
        1.0,
        3.4609655419348684e-11,
        0.0
      ],
      "min": [
        1.0,
        3.4609655419348684e-11,
        0.0
      ],
      "type": "VEC3"
    },
    {
      "bufferView": 1,
      "byteOffset": 13120,
      "componentType": 5126,
      "count": 164,
      "max": [
        0.794919490814209,
        0.45464929938316345
      ],
      "min": [
        0.20774094760417938,
        0.091576486825943
      ],
      "type": "VEC2"
    },
    {
      "bufferView": 0,
      "byteOffset": 11760,
      "componentType": 5125,
      "count": 486,
      "type": "SCALAR"
    },
    {
      "bufferView": 2,
      "byteOffset": 43296,
      "componentType": 5126,
      "count": 164,
      "max": [
        0.006701319012790918,
        1.0,
        0.5605754256248474
      ],
      "min": [
        0.006701319012790918,
        -1.0,
        -0.5605754256248474
      ],
      "type": "VEC3"
    },
    {
      "bufferView": 2,
      "byteOffset": 45264,
      "componentType": 5126,
      "count": 164,
      "max": [
        -1.0,
        -3.4609655419348684e-11,
        0.0
      ],
      "min": [
        -1.0,
        -3.4609655419348684e-11,
        0.0
      ],
      "type": "VEC3"
    },
    {
      "bufferView": 1,
      "byteOffset": 14432,
      "componentType": 5126,
      "count": 164,
      "max": [
        0.7891501188278198,
        0.9165843725204468
      ],
      "min": [
        0.20912903547286987,
        0.5448939204216003
      ],
      "type": "VEC2"
    },
    {
      "bufferView": 0,
      "byteOffset": 13704,
      "componentType": 5125,
      "count": 486,
      "type": "SCALAR"
    },
    {
      "bufferView": 2,
      "byteOffset": 47232,
      "componentType": 5126,
      "count": 656,
      "max": [
        0.006701319012790918,
        1.0,
        0.5605754256248474
      ],
      "min": [
        -0.006701319012790918,
        -1.0,
        -0.5605754256248474
      ],
      "type": "VEC3"
    },
    {
      "bufferView": 2,
      "byteOffset": 55104,
      "componentType": 5126,
      "count": 656,
      "max": [
        0.0,
        1.0,
        1.0
      ],
      "min": [
        0.0,
        -1.0,
        -1.0
      ],
      "type": "VEC3"
    },
    {
      "bufferView": 1,
      "byteOffset": 15744,
      "componentType": 5126,
      "count": 656,
      "max": [
        0.875,
        1.0
      ],
      "min": [
        0.125,
        0.25
      ],
      "type": "VEC2"
    },
    {
      "bufferView": 0,
      "byteOffset": 15648,
      "componentType": 5125,
      "count": 984,
      "type": "SCALAR"
    },
    {
      "bufferView": 2,
      "byteOffset": 62976,
      "componentType": 5126,
      "count": 164,
      "max": [
        -0.006701319012790918,
        1.0,
        0.5605754256248474
      ],
      "min": [
        -0.006701319012790918,
        -1.0,
        -0.5605754256248474
      ],
      "type": "VEC3"
    },
    {
      "bufferView": 2,
      "byteOffset": 64944,
      "componentType": 5126,
      "count": 164,
      "max": [
        1.0,
        3.4609655419348684e-11,
        0.0
      ],
      "min": [
        1.0,
        3.4609655419348684e-11,
        0.0
      ],
      "type": "VEC3"
    },
    {
      "bufferView": 1,
      "byteOffset": 20992,
      "componentType": 5126,
      "count": 164,
      "max": [
        0.794919490814209,
        0.45464929938316345
      ],
      "min": [
        0.20774094760417938,
        0.091576486825943
      ],
      "type": "VEC2"
    },
    {
      "bufferView": 0,
      "byteOffset": 19584,
      "componentType": 5125,
      "count": 486,
      "type": "SCALAR"
    },
    {
      "bufferView": 2,
      "byteOffset": 66912,
      "componentType": 5126,
      "count": 164,
      "max": [
        0.006701319012790918,
        1.0,
        0.5605754256248474
      ],
      "min": [
        0.006701319012790918,
        -1.0,
        -0.5605754256248474
      ],
      "type": "VEC3"
    },
    {
      "bufferView": 2,
      "byteOffset": 68880,
      "componentType": 5126,
      "count": 164,
      "max": [
        -1.0,
        -3.4609655419348684e-11,
        0.0
      ],
      "min": [
        -1.0,
        -3.4609655419348684e-11,
        0.0
      ],
      "type": "VEC3"
    },
    {
      "bufferView": 1,
      "byteOffset": 22304,
      "componentType": 5126,
      "count": 164,
      "max": [
        0.7891501188278198,
        0.9165843725204468
      ],
      "min": [
        0.20912903547286987,
        0.5448939204216003
      ],
      "type": "VEC2"
    },
    {
      "bufferView": 0,
      "byteOffset": 21528,
      "componentType": 5125,
      "count": 486,
      "type": "SCALAR"
    }
  ],
  "asset": {
    "extras": {
      "author": "Salman1941 (https://sketchfab.com/csharpandnodejs001)",
      "license": "CC-BY-4.0 (http://creativecommons.org/licenses/by/4.0/)",
      "source": "https://sketchfab.com/3d-models/bank-cards-7fabf5fde53f489ea6d86961255788aa",
      "title": "Bank Cards"
    },
    "generator": "Sketchfab-15.4.0",
    "version": "2.0"
  },
  "bufferViews": [
    {
      "buffer": 0,
      "byteLength": 23472,
      "name": "floatBufferViews",
      "target": 34963
    },
    {
      "buffer": 0,
      "byteLength": 23616,
      "byteOffset": 23472,
      "byteStride": 8,
      "name": "floatBufferViews",
      "target": 34962
    },
    {
      "buffer": 0,
      "byteLength": 70848,
      "byteOffset": 47088,
      "byteStride": 12,
      "name": "floatBufferViews",
      "target": 34962
    }
  ],
  "buffers": [
    {
      "byteLength": 117936,
      "uri": "scene.bin"
    }
  ],
  "extensionsUsed": [
    "KHR_materials_specular"
  ],
  "images": [
    {
      "uri": "textures/back_baseColor.png"
    }
  ],
  "materials": [
    {
      "doubleSided": true,
      "extensions": {
        "KHR_materials_specular": {
          "specularColorFactor": [
            1.0,
            1.0,
            1.0
          ],
          "specularFactor": 1.0
        }
      },
      "name": "base",
      "pbrMetallicRoughness": {
        "baseColorFactor": [
          0.0103298,
          0.122139,
          0.278894,
          1.0
        ],
        "roughnessFactor": 0.3
      }
    },
    {
      "doubleSided": true,
      "extensions": {
        "KHR_materials_specular": {
          "specularColorFactor": [
            1.0,
            1.0,
            1.0
          ],
          "specularFactor": 1.0
        }
      },
      "name": "back",
      "pbrMetallicRoughness": {
        "baseColorTexture": {
          "index": 0
        },
        "roughnessFactor": 0.3
      }
    },
    {
      "doubleSided": true,
      "extensions": {
        "KHR_materials_specular": {
          "specularColorFactor": [
            1.0,
            1.0,
            1.0
          ],
          "specularFactor": 1.0
        }
      },
      "name": "front",
      "pbrMetallicRoughness": {
        "baseColorTexture": {
          "index": 0
        },
        "roughnessFactor": 0.3
      }
    }
  ],
  "meshes": [
    {
      "name": "Cube_base_0",
      "primitives": [
        {
          "attributes": {
            "NORMAL": 1,
            "POSITION": 0,
            "TEXCOORD_0": 2
          },
          "indices": 3,
          "material": 0,
          "mode": 4
        }
      ]
    },
    {
      "name": "Cube_back_0",
      "primitives": [
        {
          "attributes": {
            "NORMAL": 5,
            "POSITION": 4,
            "TEXCOORD_0": 6
          },
          "indices": 7,
          "material": 1,
          "mode": 4
        }
      ]
    },
    {
      "name": "Cube_front_0",
      "primitives": [
        {
          "attributes": {
            "NORMAL": 9,
            "POSITION": 8,
            "TEXCOORD_0": 10
          },
          "indices": 11,
          "material": 2,
          "mode": 4
        }
      ]
    },
    {
      "name": "Cube.001_base_0",
      "primitives": [
        {
          "attributes": {
            "NORMAL": 13,
            "POSITION": 12,
            "TEXCOORD_0": 14
          },
          "indices": 15,
          "material": 0,
          "mode": 4
        }
      ]
    },
    {
      "name": "Cube.001_back_0",
      "primitives": [
        {
          "attributes": {
            "NORMAL": 17,
            "POSITION": 16,
            "TEXCOORD_0": 18
          },
          "indices": 19,
          "material": 1,
          "mode": 4
        }
      ]
    },
    {
      "name": "Cube.001_front_0",
      "primitives": [
        {
          "attributes": {
            "NORMAL": 21,
            "POSITION": 20,
            "TEXCOORD_0": 22
          },
          "indices": 23,
          "material": 2,
          "mode": 4
        }
      ]
    },
    {
      "name": "Cube.002_base_0",
      "primitives": [
        {
          "attributes": {
            "NORMAL": 25,
            "POSITION": 24,
            "TEXCOORD_0": 26
          },
          "indices": 27,
          "material": 0,
          "mode": 4
        }
      ]
    },
    {
      "name": "Cube.002_back_0",
      "primitives": [
        {
          "attributes": {
            "NORMAL": 29,
            "POSITION": 28,
            "TEXCOORD_0": 30
          },
          "indices": 31,
          "material": 1,
          "mode": 4
        }
      ]
    },
    {
      "name": "Cube.002_front_0",
      "primitives": [
        {
          "attributes": {
            "NORMAL": 33,
            "POSITION": 32,
            "TEXCOORD_0": 34
          },
          "indices": 35,
          "material": 2,
          "mode": 4
        }
      ]
    }
  ],
  "nodes": [
    {
      "children": [
        1
      ],
      "matrix": [
        1.0,
        0.0,
        0.0,
        0.0,
        0.0,
        2.220446049250313e-16,
        -1.0,
        0.0,
        0.0,
        1.0,
        2.220446049250313e-16,
        0.0,
        0.0,
        0.0,
        0.0,
        1.0
      ],
      "name": "Sketchfab_model"
    },
    {
      "children": [
        2
      ],
      "matrix": [
        0.009999999776482582,
        0.0,
        0.0,
        0.0,
        0.0,
        0.0,
        0.009999999776482582,
        0.0,
        0.0,
        -0.009999999776482582,
        0.0,
        0.0,
        0.0,
        0.0,
        0.0,
        1.0
      ],
      "name": "bank cards.fbx"
    },
    {
      "children": [
        3,
        7,
        11
      ],
      "name": "RootNode"
    },
    {
      "children": [
        4,
        5,
        6
      ],
      "matrix": [
        1.0619536001658867e-05,
        -140.6600189208978,
        8.383989478046728e-06,
        0.0,
        -4.371138567771382e-06,
        -5.960464122267695e-06,
        -99.99999999999973,
        0.0,
        99.99999999999963,
        7.549789721172928e-06,
        -4.371139028513937e-06,
        0.0,
        156.55722045898438,
        -49.9999885559082,
        -101.24882507324219,
        1.0
      ],
      "name": "Cube"
    },
    {
      "mesh": 0,
      "name": "Cube_base_0"
    },
    {
      "mesh": 1,
      "name": "Cube_back_0"
    },
    {
      "mesh": 2,
      "name": "Cube_front_0"
    },
    {
      "children": [
        8,
        9,
        10
      ],
      "matrix": [
        -6.148444922100884e-06,
        140.6600189208983,
        7.80819958250958e-15,
        0.0,
        -70.71067235853857,
        -3.090861766530395e-06,
        -70.71068387877038,
        0.0,
        -70.71068387877031,
        -3.0908622772329863e-06,
        70.71067235853864,
        0.0,
        126.40621948242188,
        -51.90605545043945,
        126.40621948242188,
        1.0
      ],
      "name": "Cube.001"
    },
    {
      "mesh": 3,
      "name": "Cube.001_base_0"
    },
    {
      "mesh": 4,
      "name": "Cube.001_back_0"
    },
    {
      "mesh": 5,
      "name": "Cube.001_front_0"
    },
    {
      "children": [
        12,
        13,
        14
      ],
      "matrix": [
        140.66001892089844,
        0.0,
        0.0,
        0.0,
        0.0,
        -4.371139006309477e-06,
        -99.9999999999999,
        0.0,
        0.0,
        99.9999999999999,
        -4.371139006309477e-06,
        0.0,
        0.0,
        0.0,
        0.0,
        1.0
      ],
      "name": "Cube.002"
    },
    {
      "mesh": 6,
      "name": "Cube.002_base_0"
    },
    {
      "mesh": 7,
      "name": "Cube.002_back_0"
    },
    {
      "mesh": 8,
      "name": "Cube.002_front_0"
    }
  ],
  "samplers": [
    {
      "magFilter": 9729,
      "minFilter": 9987,
      "wrapS": 10497,
      "wrapT": 10497
    }
  ],
  "scene": 0,
  "scenes": [
    {
      "name": "Sketchfab_Scene",
      "nodes": [
        0
      ]
    }
  ],
  "textures": [
    {
      "sampler": 0,
      "source": 0
    }
  ]
}
